<svg width="300" height="300" viewBox="0 15 206 60" class="looka-1j8o68f"><defs id="SvgjsDefs5331"><linearGradient id="SvgjsLinearGradient5338"><stop id="SvgjsStop5339" stop-color="#905e26" offset="0"></stop><stop id="SvgjsStop5340" stop-color="#f5ec9b" offset="0.5"></stop><stop id="SvgjsStop5341" stop-color="#905e26" offset="1"></stop></linearGradient></defs><g id="SvgjsG5332" featurekey="nameLeftFeature-0" transform="matrix(2.5473147333317545,0,0,2.5473147333317545,-2.5473162516496526,15.053705333364913)" fill="#ffffff"><path d="M11.46 20 l-1.44 0 l-5.06 -6.96 c-0.98 -0.02 -1.84 -0.08 -2.8 -0.16 l0 7.12 l-1.16 0 l0 -14 c2.06 -0.1 3.3 -0.16 4.66 -0.12 c2.6 0.08 4.44 1.58 4.44 3.62 c0 2.02 -1.5 3.46 -3.68 3.56 z M2.16 6.42 l0 6.02 c0.92 0.16 2.62 0.26 3.72 0.26 c2 0 3.28 -1.32 3.12 -3.2 c-0.16 -1.9 -1.68 -3.24 -3.68 -3.24 c-1.72 0 -2.88 0.12 -3.16 0.16 z M12.66 20 l0 -14 l1.16 0 l0 6.66 l7.98 0 l0 -6.66 l1.16 0 l0 14 l-1.16 0 l0 -6.98 l-7.98 0 l0 6.98 l-1.16 0 z"></path></g><g id="SvgjsG5333" featurekey="inlineSymbolFeature-0" transform="matrix(0.6356204536882375,0,0,0.6356204536882375,50.51954947734253,15.348661700522658)" fill="url(#SvgjsLinearGradient5338)"><path xmlns="http://www.w3.org/2000/svg" d="M50.468,79.688c3.308-0.008,4.781-0.357,4.781-0.357s-0.949-3.729-1.13-5.967s-0.284-3.404,0-6.465  c0.27-2.9,0.722-8.166,2.679-9.426c1.716-1.105,7.724-3.627,9.293-4.621s6.639-4.724,7.664-5.532  c1.026-0.808,6.64-5.097,8.209-7.023s2.232-2.486,3.198-4.351c0.966-1.864,1.569-4.91,1.569-6.278c0-1.367,0-4.351-0.423-5.407  c-0.422-1.057-0.543-1.305-1.388-1.181c-0.845,0.124-0.604-0.125-1.146,0.994c-0.544,1.119-1.026,2.921-1.992,3.419  c-0.966,0.497-11.226,1.678-15.028,3.356c-3.802,1.678-6.99,3.261-11.226,6.34c-3.078,2.237-5.491,6.34-5.491,6.34l-0.033-0.053  c0,0-2.382-4.049-5.459-6.287c-4.235-3.079-7.424-4.662-11.227-6.34c-3.802-1.678-14.062-2.859-15.027-3.356  c-0.967-0.498-1.449-2.3-1.992-3.419c-0.543-1.119-0.302-0.87-1.146-0.994c-0.846-0.125-0.966,0.124-1.389,1.181  c-0.422,1.057-0.422,4.04-0.422,5.407c0,1.368,0.604,4.414,1.568,6.278c0.966,1.865,1.63,2.424,3.199,4.351s7.183,6.215,8.208,7.023  c1.026,0.808,6.096,4.538,7.665,5.532s7.576,3.516,9.293,4.621c1.957,1.26,3.138,6.525,3.388,9.426c0.279,3.252,0.181,4.227,0,6.465  s-0.936,6.076-0.936,6.076S47.579,79.691,50.468,79.688z"></path></g><g id="SvgjsG5334" featurekey="nameRightFeature-0" transform="matrix(2.5714283962639133,0,0,2.5714283962639133,107.48571235890304,14.912219121645578)" fill="#ffffff"><path d="M21.24 6 l1.16 0 l0 14 l-1.16 0 l0 -6.98 l-7.98 0 l0 6.98 l-1.16 0 l0 -13.64 l-5.96 0 l0 13.64 l-1.16 0 l0 -13.64 l-4.78 0 l0 -0.36 l13.06 0 l0 6.66 l7.98 0 l0 -6.66 z M37.94 6 l0 14 l-1.16 0 l0 -13.38 l-6.04 13.38 l-0.48 0 l-5.64 -12.48 l0 12.48 l-0.42 0 l0 -14 l1.12 0 l5.64 12.46 l5.62 -12.46 l1.36 0 z"></path></g></svg>