<svg width="200" viewBox="0 15 180 65" class="looka-1j8o68f"><defs id="SvgjsDefs1017"><linearGradient id="SvgjsLinearGradient1024"><stop id="SvgjsStop1025" stop-color="#905e26" offset="0"></stop><stop id="SvgjsStop1026" stop-color="#f5ec9b" offset="0.5"></stop><stop id="SvgjsStop1027" stop-color="#905e26" offset="1"></stop></linearGradient></defs><g id="SvgjsG1018" featurekey="nameLeftFeature-0" transform="matrix(2.5751073804571254,0,0,2.5751073804571254,53.40772525337859,14.497853618764381)" fill="#000000"><path d="M11.7 13.51 q-0.94 1.15 -2.68 1.53 l3.62 4.96 l-0.5 0 l-3.56 -4.88 q-0.8 0.08 -1.28 0.08 l-4.34 0 l0 4.8 l-0.4 0 l0 -13.98 l4.74 0 q2.54 0 3.94 1.19 t1.4 3.35 q0 1.8 -0.94 2.95 z M7.3 14.8 q2.36 0 3.65 -1.11 t1.29 -3.13 q0 -1.98 -1.29 -3.06 t-3.65 -1.08 l-4.34 0 l0 8.38 l4.34 0 z M17 6.02 l0.4 0 l0 6.72 l10.06 0 l0 -6.72 l0.4 0 l0 13.98 l-0.4 0 l0 -6.86 l-10.06 0 l0 6.86 l-0.4 0 l0 -13.98 z"></path></g><g id="SvgjsG1019" featurekey="inlineSymbolFeature-0" transform="matrix(0.6356204536882375,0,0,0.6356204536882375,61.51954947734253,15.348661700522658)" fill="url(#SvgjsLinearGradient1024)"><path xmlns="http://www.w3.org/2000/svg" d="M50.468,79.688c3.308-0.008,4.781-0.357,4.781-0.357s-0.949-3.729-1.13-5.967s-0.284-3.404,0-6.465  c0.27-2.9,0.722-8.166,2.679-9.426c1.716-1.105,7.724-3.627,9.293-4.621s6.639-4.724,7.664-5.532  c1.026-0.808,6.64-5.097,8.209-7.023s2.232-2.486,3.198-4.351c0.966-1.864,1.569-4.91,1.569-6.278c0-1.367,0-4.351-0.423-5.407  c-0.422-1.057-0.543-1.305-1.388-1.181c-0.845,0.124-0.604-0.125-1.146,0.994c-0.544,1.119-1.026,2.921-1.992,3.419  c-0.966,0.497-11.226,1.678-15.028,3.356c-3.802,1.678-6.99,3.261-11.226,6.34c-3.078,2.237-5.491,6.34-5.491,6.34l-0.033-0.053  c0,0-2.382-4.049-5.459-6.287c-4.235-3.079-7.424-4.662-11.227-6.34c-3.802-1.678-14.062-2.859-15.027-3.356  c-0.967-0.498-1.449-2.3-1.992-3.419c-0.543-1.119-0.302-0.87-1.146-0.994c-0.846-0.125-0.966,0.124-1.389,1.181  c-0.422,1.057-0.422,4.04-0.422,5.407c0,1.368,0.604,4.414,1.568,6.278c0.966,1.865,1.63,2.424,3.199,4.351s7.183,6.215,8.208,7.023  c1.026,0.808,6.096,4.538,7.665,5.532s7.576,3.516,9.293,4.621c1.957,1.26,3.138,6.525,3.388,9.426c0.279,3.252,0.181,4.227,0,6.465  s-0.936,6.076-0.936,6.076S47.579,79.691,50.468,79.688z"></path></g><g id="SvgjsG1020" featurekey="nameRightFeature-0" transform="matrix(1,0,0,1,117,48)" fill="#ffffff"><path d=""></path></g></svg>