<svg width="32" height="32" viewBox="0 0 254.4 254.4" class="looka-1j8o68f"><defs id="SvgjsDefs18289"><linearGradient id="SvgjsLinearGradient18298"><stop id="SvgjsStop18299" stop-color="#905e26" offset="0"></stop><stop id="SvgjsStop18300" stop-color="#f5ec9b" offset="0.5"></stop><stop id="SvgjsStop18301" stop-color="#905e26" offset="1"></stop></linearGradient></defs><g id="SvgjsG18290" featurekey="rootContainer" transform="matrix(5.088,0,0,5.088,0,0)" fill="#000000"><circle cx="25" cy="25" r="25"></circle></g><g id="SvgjsG18291" featurekey="nameLeftFeature-0" transform="matrix(5.142857142857143,0,0,5.142857142857143,15.137142930712018,60.14285714285714)" fill="#ffffff"><path d="M1.14 20 l0 -14 l1.5 0 c0.98 0 1.54 0.66 1.54 1.48 c0 0.78 -0.5 1.42 -1.38 1.48 l8.46 11.04 l-0.28 0 l-8.44 -11.04 l0 11.04 l-1.4 0 z M2.64 6.199999999999999 l-0.1 0 l0 2.56 l0.12 0 c0.84 0 1.28 -0.58 1.28 -1.28 s-0.44 -1.28 -1.3 -1.28 z M12.5 6 l1.4 0 l0 2.76 l9.16 0 l0 -2.76 l0.24 0 l0 14 l-0.24 0 l0 -11.04 l-9.16 0 l0 11.04 l-1.4 0 l0 -14 z"></path></g><g id="SvgjsG18292" featurekey="inlineSymbolFeature-0" transform="matrix(1.271240907376475,0,0,1.271240907376475,131.03909895468507,61.69732340104532)" fill="url(#SvgjsLinearGradient18298)"><path xmlns="http://www.w3.org/2000/svg" d="M50.468,79.688c3.308-0.008,4.781-0.357,4.781-0.357s-0.949-3.729-1.13-5.967s-0.284-3.404,0-6.465  c0.27-2.9,0.722-8.166,2.679-9.426c1.716-1.105,7.724-3.627,9.293-4.621s6.639-4.724,7.664-5.532  c1.026-0.808,6.64-5.097,8.209-7.023s2.232-2.486,3.198-4.351c0.966-1.864,1.569-4.91,1.569-6.278c0-1.367,0-4.351-0.423-5.407  c-0.422-1.057-0.543-1.305-1.388-1.181c-0.845,0.124-0.604-0.125-1.146,0.994c-0.544,1.119-1.026,2.921-1.992,3.419  c-0.966,0.497-11.226,1.678-15.028,3.356c-3.802,1.678-6.99,3.261-11.226,6.34c-3.078,2.237-5.491,6.34-5.491,6.34l-0.033-0.053  c0,0-2.382-4.049-5.459-6.287c-4.235-3.079-7.424-4.662-11.227-6.34c-3.802-1.678-14.062-2.859-15.027-3.356  c-0.967-0.498-1.449-2.3-1.992-3.419c-0.543-1.119-0.302-0.87-1.146-0.994c-0.846-0.125-0.966,0.124-1.389,1.181  c-0.422,1.057-0.422,4.04-0.422,5.407c0,1.368,0.604,4.414,1.568,6.278c0.966,1.865,1.63,2.424,3.199,4.351s7.183,6.215,8.208,7.023  c1.026,0.808,6.096,4.538,7.665,5.532s7.576,3.516,9.293,4.621c1.957,1.26,3.138,6.525,3.388,9.426c0.279,3.252,0.181,4.227,0,6.465  s-0.936,6.076-0.936,6.076S47.579,79.691,50.468,79.688z"></path></g><g id="SvgjsG18293" featurekey="nameRightFeature-0" transform="matrix(1,0,0,1,233,127)" fill="#000000"><path d=""></path></g></svg>